<mxfile host="app.diagrams.net" agent="Mozilla/5.0 (Windows NT 10.0; Win64; x64) AppleWebKit/537.36 (KHTML, like Gecko) Chrome/134.0.0.0 Safari/537.36" version="26.2.9">
  <diagram name="Strona-1" id="T9ZjgtE1-3SJMzzSZUbt">
    <mxGraphModel dx="707" dy="817" grid="1" gridSize="10" guides="1" tooltips="1" connect="1" arrows="1" fold="1" page="1" pageScale="1" pageWidth="827" pageHeight="1169" math="0" shadow="0">
      <root>
        <mxCell id="0" />
        <mxCell id="1" parent="0" />
        <mxCell id="JSGNTRRSCuh1uGreU2Br-5" value="Pracownik" style="html=1;whiteSpace=wrap;" vertex="1" parent="1">
          <mxGeometry x="310" y="190" width="110" height="50" as="geometry" />
        </mxCell>
        <mxCell id="JSGNTRRSCuh1uGreU2Br-9" style="edgeStyle=orthogonalEdgeStyle;rounded=0;orthogonalLoop=1;jettySize=auto;html=1;entryX=0;entryY=0.5;entryDx=0;entryDy=0;" edge="1" parent="1" source="JSGNTRRSCuh1uGreU2Br-6" target="JSGNTRRSCuh1uGreU2Br-8">
          <mxGeometry relative="1" as="geometry" />
        </mxCell>
        <mxCell id="JSGNTRRSCuh1uGreU2Br-6" value="Właściciel" style="html=1;whiteSpace=wrap;" vertex="1" parent="1">
          <mxGeometry x="20" y="400" width="110" height="50" as="geometry" />
        </mxCell>
        <mxCell id="JSGNTRRSCuh1uGreU2Br-7" value="Baza Danych" style="html=1;whiteSpace=wrap;" vertex="1" parent="1">
          <mxGeometry x="590" y="400" width="110" height="50" as="geometry" />
        </mxCell>
        <mxCell id="JSGNTRRSCuh1uGreU2Br-11" style="edgeStyle=orthogonalEdgeStyle;rounded=0;orthogonalLoop=1;jettySize=auto;html=1;entryX=0.5;entryY=1;entryDx=0;entryDy=0;endArrow=none;startFill=0;" edge="1" parent="1" source="JSGNTRRSCuh1uGreU2Br-8" target="JSGNTRRSCuh1uGreU2Br-5">
          <mxGeometry relative="1" as="geometry" />
        </mxCell>
        <mxCell id="JSGNTRRSCuh1uGreU2Br-12" style="edgeStyle=orthogonalEdgeStyle;rounded=0;orthogonalLoop=1;jettySize=auto;html=1;entryX=0;entryY=0.5;entryDx=0;entryDy=0;endArrow=none;startFill=0;" edge="1" parent="1" source="JSGNTRRSCuh1uGreU2Br-8" target="JSGNTRRSCuh1uGreU2Br-7">
          <mxGeometry relative="1" as="geometry" />
        </mxCell>
        <mxCell id="JSGNTRRSCuh1uGreU2Br-8" value="Szkolenie" style="html=1;whiteSpace=wrap;" vertex="1" parent="1">
          <mxGeometry x="310" y="400" width="110" height="50" as="geometry" />
        </mxCell>
        <mxCell id="JSGNTRRSCuh1uGreU2Br-13" value="" style="triangle;whiteSpace=wrap;html=1;fillColor=light-dark(#FFFFFF,#FFFFFF);fillStyle=solid;rotation=0;" vertex="1" parent="1">
          <mxGeometry x="250" y="400" width="10.5" height="19" as="geometry" />
        </mxCell>
        <mxCell id="JSGNTRRSCuh1uGreU2Br-14" value="Zleca" style="text;html=1;align=center;verticalAlign=middle;resizable=0;points=[];autosize=1;strokeColor=none;fillColor=none;" vertex="1" parent="1">
          <mxGeometry x="200" y="394.5" width="50" height="30" as="geometry" />
        </mxCell>
        <mxCell id="JSGNTRRSCuh1uGreU2Br-15" value="" style="triangle;whiteSpace=wrap;html=1;fillColor=light-dark(#FFFFFF,#FFFFFF);fillStyle=solid;rotation=90;" vertex="1" parent="1">
          <mxGeometry x="380" y="330" width="10.5" height="19" as="geometry" />
        </mxCell>
        <mxCell id="JSGNTRRSCuh1uGreU2Br-16" value="Otrzymuje" style="text;html=1;align=center;verticalAlign=middle;resizable=0;points=[];autosize=1;strokeColor=none;fillColor=none;" vertex="1" parent="1">
          <mxGeometry x="360" y="300" width="80" height="30" as="geometry" />
        </mxCell>
        <mxCell id="JSGNTRRSCuh1uGreU2Br-17" value="" style="triangle;whiteSpace=wrap;html=1;fillColor=light-dark(#FFFFFF,#FFFFFF);fillStyle=solid;rotation=-180;" vertex="1" parent="1">
          <mxGeometry x="470.5" y="400" width="10.5" height="19" as="geometry" />
        </mxCell>
        <mxCell id="JSGNTRRSCuh1uGreU2Br-18" value="Odnotowuje" style="text;html=1;align=center;verticalAlign=middle;resizable=0;points=[];autosize=1;strokeColor=none;fillColor=none;" vertex="1" parent="1">
          <mxGeometry x="470.5" y="394.5" width="90" height="30" as="geometry" />
        </mxCell>
        <mxCell id="JSGNTRRSCuh1uGreU2Br-20" value="1" style="text;html=1;align=center;verticalAlign=middle;resizable=0;points=[];autosize=1;strokeColor=none;fillColor=none;" vertex="1" parent="1">
          <mxGeometry x="130" y="394.5" width="30" height="30" as="geometry" />
        </mxCell>
        <mxCell id="JSGNTRRSCuh1uGreU2Br-21" value="1...*" style="text;html=1;align=center;verticalAlign=middle;resizable=0;points=[];autosize=1;strokeColor=none;fillColor=none;" vertex="1" parent="1">
          <mxGeometry x="270" y="394.5" width="40" height="30" as="geometry" />
        </mxCell>
        <mxCell id="JSGNTRRSCuh1uGreU2Br-24" value="1...*" style="text;html=1;align=center;verticalAlign=middle;resizable=0;points=[];autosize=1;strokeColor=none;fillColor=none;" vertex="1" parent="1">
          <mxGeometry x="330" y="240" width="40" height="30" as="geometry" />
        </mxCell>
        <mxCell id="JSGNTRRSCuh1uGreU2Br-25" value="1...*" style="text;html=1;align=center;verticalAlign=middle;resizable=0;points=[];autosize=1;strokeColor=none;fillColor=none;" vertex="1" parent="1">
          <mxGeometry x="330" y="364.5" width="40" height="30" as="geometry" />
        </mxCell>
        <mxCell id="JSGNTRRSCuh1uGreU2Br-26" value="1" style="text;html=1;align=center;verticalAlign=middle;resizable=0;points=[];autosize=1;strokeColor=none;fillColor=none;" vertex="1" parent="1">
          <mxGeometry x="560" y="400" width="30" height="30" as="geometry" />
        </mxCell>
        <mxCell id="JSGNTRRSCuh1uGreU2Br-27" value="1...*" style="text;html=1;align=center;verticalAlign=middle;resizable=0;points=[];autosize=1;strokeColor=none;fillColor=none;" vertex="1" parent="1">
          <mxGeometry x="414" y="400" width="40" height="30" as="geometry" />
        </mxCell>
      </root>
    </mxGraphModel>
  </diagram>
</mxfile>
